<svg width="32" height="32" viewBox="0 0 32 32" fill="none" xmlns="http://www.w3.org/2000/svg">
<path d="M6.66683 26.6667V24H8.80016L11.4335 15.2333C11.6113 14.6556 11.9393 14.1947 12.4175 13.8507C12.8957 13.5067 13.4233 13.3342 14.0002 13.3333H18.0002C18.5779 13.3333 19.1059 13.5058 19.5842 13.8507C20.0624 14.1956 20.3899 14.6564 20.5668 15.2333L23.2002 24H25.3335V26.6667H6.66683ZM14.6668 10.6667V4H17.3335V10.6667H14.6668ZM22.6002 13.9667L20.7002 12.0667L25.4335 7.36667L27.3002 9.23333L22.6002 13.9667ZM24.0002 20V17.3333H30.6668V20H24.0002ZM9.40016 13.9667L4.70016 9.23333L6.56683 7.36667L11.3002 12.0667L9.40016 13.9667ZM1.3335 20V17.3333H8.00016V20H1.3335Z" fill="white"/>
</svg>
