<svg width="33" height="33" viewBox="0 0 33 33" fill="none" xmlns="http://www.w3.org/2000/svg">
<g clip-path="url(#clip0_70_327)">
<path d="M1.03125 16.5C1.03125 20.6026 2.66099 24.5371 5.56194 27.4381C8.4629 30.339 12.3974 31.9688 16.5 31.9688C20.6026 31.9688 24.5371 30.339 27.4381 27.4381C30.339 24.5371 31.9687 20.6026 31.9688 16.5C31.9687 12.3974 30.339 8.4629 27.4381 5.56194C24.5371 2.66099 20.6026 1.03125 16.5 1.03125C12.3974 1.03125 8.4629 2.66099 5.56194 5.56194C2.66099 8.4629 1.03125 12.3974 1.03125 16.5Z" stroke="#07A3C4" stroke-opacity="0.87" stroke-width="3" stroke-linecap="round" stroke-linejoin="round"/>
<path d="M5.15625 17.5313H9.28125L12.3888 9.76258C12.467 9.56891 12.6022 9.4036 12.7766 9.28859C12.951 9.17358 13.1562 9.1143 13.365 9.11863C13.5738 9.12295 13.7764 9.19068 13.9459 9.31281C14.1153 9.43494 14.2436 9.60571 14.3137 9.80246L18.8402 22.6243C18.906 22.8105 19.0238 22.9739 19.1797 23.0951C19.3356 23.2163 19.523 23.2902 19.7196 23.308C19.9163 23.3258 20.1139 23.2868 20.289 23.1956C20.4641 23.1044 20.6094 22.9648 20.7075 22.7935L23.7188 17.5313H27.8438" stroke="#07A3C4" stroke-opacity="0.87" stroke-width="3" stroke-linecap="round" stroke-linejoin="round"/>
</g>
<defs>
<clipPath id="clip0_70_327">
<rect width="33" height="33" fill="white"/>
</clipPath>
</defs>
</svg>
