<svg width="33" height="33" viewBox="0 0 33 33" fill="none" xmlns="http://www.w3.org/2000/svg">
<g clip-path="url(#clip0_70_251)">
<path d="M16.5 0C25.6067 0 33 7.39329 33 16.5C33 25.6067 25.6067 33 16.5 33C7.39329 33 0 25.6067 0 16.5C0 7.39329 7.39329 0 16.5 0ZM16.4809 25.45L16.475 25.4533H16.4866L16.4809 25.45ZM16.4809 25.45C30.889 17.1461 24.0673 10.4723 20.8003 9.68988C18.6115 9.16601 17.1847 10.5345 16.4809 11.4956C15.7771 10.5345 14.3501 9.16601 12.1615 9.68988C8.89453 10.4721 2.0723 17.1461 16.4809 25.45Z" fill="#07A3C4" fill-opacity="0.87"/>
</g>
<defs>
<clipPath id="clip0_70_251">
<rect width="33" height="33" fill="white"/>
</clipPath>
</defs>
</svg>
