<svg width="24" height="24" viewBox="0 0 24 24" fill="none" xmlns="http://www.w3.org/2000/svg">
<g clip-path="url(#clip0_483_1214)">
<path d="M19.527 4.79902C20.739 7.40702 20.464 10.477 19.122 12.972C18.021 15.019 16.378 16.712 15.024 18.586C14.405 19.444 13.78 20.336 13.3549 21.313C13.214 21.638 13.092 21.971 12.972 22.305C12.851 22.638 12.748 22.978 12.632 23.313C12.523 23.627 12.396 23.997 12.005 24H11.998C11.532 23.999 11.419 23.47 11.303 23.113C11.019 22.239 10.722 21.4 10.284 20.588C9.77395 19.644 9.13895 18.771 8.49395 17.917L19.527 4.79902ZM8.54495 7.70502L4.58595 12.412C5.30995 13.952 6.40695 15.275 7.45695 16.592C7.70428 16.902 7.94995 17.214 8.19395 17.528L13.178 11.603L13.149 11.613C11.408 12.214 9.45795 11.322 8.75695 9.62602C8.66124 9.39574 8.59115 9.15563 8.54795 8.91002C8.48495 8.47302 8.47095 8.14902 8.54395 7.71202L8.54495 7.70502ZM5.49195 3.14902L5.48895 3.15302C3.54195 5.61902 3.20795 9.03302 4.37195 11.923L9.15695 6.23402L9.09895 6.18402L5.49195 3.14902ZM14.661 0.436019L10.8229 4.99902L10.85 4.98902C12.45 4.43802 14.2529 5.13902 15.07 6.61502C15.2459 6.93402 15.393 7.29802 15.4469 7.66002C15.5149 8.10602 15.5319 8.43302 15.459 8.88002L15.456 8.89602L19.292 4.33502C18.2897 2.50654 16.6417 1.11742 14.67 0.439019L14.661 0.436019ZM9.46595 5.86802L14.162 0.285019L14.115 0.273019C13.4201 0.0902536 12.7044 -0.00151361 11.986 1.88801e-05C10.8226 0.0109758 9.674 0.262344 8.61239 0.738339C7.55078 1.21433 6.59905 1.90468 5.81695 2.76602L5.80095 2.78402L9.46595 5.86802Z" fill="white"/>
</g>
<defs>
<clipPath id="clip0_483_1214">
<rect width="24" height="24" fill="white"/>
</clipPath>
</defs>
</svg>
