<svg width="40" height="40" viewBox="0 0 40 40" fill="none" xmlns="http://www.w3.org/2000/svg">
<g clip-path="url(#clip0_70_287)">
<path d="M22.3889 14.1C21.6713 14.1 21.0616 13.8305 20.5599 13.2915C20.0581 12.7526 19.8067 12.0971 19.8056 11.325C19.8056 10.7392 20.0426 10.0608 20.5168 9.29C20.991 8.51917 21.3998 7.91792 21.7431 7.48625C21.9153 7.27042 22.1306 7.1625 22.3889 7.1625C22.6472 7.1625 22.8625 7.27042 23.0347 7.48625C23.3792 7.91792 23.7885 8.51917 24.2627 9.29C24.7368 10.0608 24.9734 10.7392 24.9722 11.325C24.9722 12.0958 24.7213 12.7513 24.2196 13.2915C23.7179 13.8317 23.1076 14.1012 22.3889 14.1ZM26.6944 27.05C25.4889 27.05 24.4699 26.6029 23.6375 25.7087C22.8051 24.8146 22.3889 23.72 22.3889 22.425C22.3889 21.3458 22.7838 20.1045 23.5738 18.7009C24.3637 17.2974 25.0738 16.1954 25.7042 15.395C25.9625 15.0558 26.2926 14.8862 26.6944 14.8862C27.0963 14.8862 27.4264 15.0558 27.6847 15.395C28.3162 16.1967 29.0269 17.2993 29.8168 18.7028C30.6068 20.1063 31.0011 21.3471 31 22.425C31 23.72 30.5838 24.8146 29.7514 25.7087C28.919 26.6029 27.9 27.05 26.6944 27.05ZM8.61111 28.9V30.75C8.61111 31.2742 8.77644 31.7138 9.10711 32.069C9.43778 32.4242 9.84652 32.6012 10.3333 32.6C10.8201 32.5988 11.2295 32.4212 11.5613 32.0672C11.8931 31.7132 12.0578 31.2742 12.0556 30.75V28.9H13.7778C14.2657 28.9 14.6751 28.7224 15.0057 28.3672C15.3364 28.012 15.5011 27.5729 15.5 27.05C15.4989 26.5271 15.3335 26.088 15.004 25.7328C14.6745 25.3776 14.2657 25.2 13.7778 25.2H12.0556V23.35C12.0556 22.8258 11.8902 22.3868 11.5596 22.0328C11.2289 21.6788 10.8201 21.5012 10.3333 21.5C9.84652 21.4988 9.43778 21.6764 9.10711 22.0328C8.77644 22.3892 8.61111 22.8283 8.61111 23.35V25.2H6.88889C6.40093 25.2 5.99218 25.3776 5.66267 25.7328C5.33315 26.088 5.16781 26.5271 5.16667 27.05C5.16552 27.5729 5.33085 28.0126 5.66267 28.369C5.99448 28.7255 6.40322 28.9025 6.88889 28.9H8.61111ZM3.44444 36.3H17.2222V21.5C17.2222 19.465 16.5477 17.7229 15.1986 16.2737C13.8495 14.8246 12.2278 14.1 10.3333 14.1C8.43889 14.1 6.81713 14.8246 5.46806 16.2737C4.11898 17.7229 3.44444 19.465 3.44444 21.5V36.3ZM3.44444 40C2.49722 40 1.68663 39.638 1.01267 38.914C0.338703 38.1901 0.00114815 37.3187 0 36.3V21.5C0 18.725 0.818056 16.32 2.45417 14.285C4.09028 12.25 6.14259 11.0167 8.61111 10.585V6.7H6.88889C6.40093 6.7 5.99218 6.5224 5.66267 6.1672C5.33315 5.812 5.16781 5.37293 5.16667 4.85C5.16552 4.32707 5.33085 3.888 5.66267 3.5328C5.99448 3.1776 6.40322 3 6.88889 3H15.5C16.2463 3 16.9713 3.10052 17.6752 3.30155C18.379 3.50258 19.0461 3.78748 19.6764 4.15625C19.9921 4.31042 20.2361 4.54167 20.4083 4.85C20.5806 5.15833 20.6667 5.4975 20.6667 5.8675C20.6667 6.39167 20.4944 6.83135 20.15 7.18655C19.8056 7.54175 19.3893 7.71873 18.9014 7.7175C18.6718 7.7175 18.356 7.60958 17.9542 7.39375C17.581 7.17792 17.1935 7.00833 16.7917 6.885C16.3898 6.76167 15.9593 6.7 15.5 6.7H12.0556V10.585C14.5241 11.0167 16.5764 12.25 18.2125 14.285C19.8486 16.32 20.6667 18.725 20.6667 21.5V36.3C20.6667 37.3175 20.3297 38.1888 19.6557 38.914C18.9818 39.6392 18.1706 40.0012 17.2222 40H3.44444Z" fill="#07A3C4" fill-opacity="0.87"/>
</g>
<defs>
<clipPath id="clip0_70_287">
<rect width="40" height="40" fill="white"/>
</clipPath>
</defs>
</svg>
