<svg width="40" height="40" viewBox="0 0 40 40" fill="none" xmlns="http://www.w3.org/2000/svg">
<path fill-rule="evenodd" clip-rule="evenodd" d="M18.83 3.65837C19.5844 3.3756 20.4156 3.3756 21.17 3.65837L32.8367 8.03337C33.4722 8.27159 34.0198 8.69813 34.4064 9.25596C34.793 9.8138 35.0001 10.4763 35 11.155V20.0934C35.0001 22.8791 34.2244 25.6098 32.7599 27.9795C31.2954 30.3492 29.1999 32.2642 26.7083 33.51L21.1183 36.305C20.7711 36.4787 20.3882 36.5691 20 36.5691C19.6118 36.5691 19.2289 36.4787 18.8817 36.305L13.2917 33.51C10.8001 32.2642 8.70461 30.3492 7.24011 27.9795C5.77562 25.6098 4.99994 22.8791 5 20.0934V11.155C4.99992 10.4763 5.20701 9.8138 5.59359 9.25596C5.98017 8.69813 6.52782 8.27159 7.16333 8.03337L18.83 3.65837ZM20 6.78004L8.33333 11.155V20.0934C8.33372 22.2598 8.93732 24.3834 10.0765 26.2261C11.2157 28.0689 12.8455 29.558 14.7833 30.5267L20 33.1384V6.78004Z" fill="#07A3C4" fill-opacity="0.87"/>
</svg>
