<svg width="33" height="33" viewBox="0 0 33 33" fill="none" xmlns="http://www.w3.org/2000/svg">
<path d="M18.04 2.83258L10.4225 10.4501C9.91375 10.9588 9.625 11.6601 9.625 12.3888V26.1251C9.625 27.6376 10.8625 28.8751 12.375 28.8751H24.75C25.85 28.8751 26.84 28.2151 27.28 27.2113L31.7625 16.7476C32.9175 14.0251 30.9238 11.0001 27.9675 11.0001H20.1987L21.505 4.70258C21.6425 4.01508 21.4362 3.31383 20.9412 2.81883C20.13 2.02133 18.8375 2.02133 18.04 2.83258ZM4.125 28.8751C5.6375 28.8751 6.875 27.6376 6.875 26.1251V15.1251C6.875 13.6126 5.6375 12.3751 4.125 12.3751C2.6125 12.3751 1.375 13.6126 1.375 15.1251V26.1251C1.375 27.6376 2.6125 28.8751 4.125 28.8751Z" fill="#07A3C4" fill-opacity="0.87"/>
</svg>
