<svg width="34" height="29" viewBox="0 0 34 29" fill="none" xmlns="http://www.w3.org/2000/svg">
<path d="M25.8568 5.63756C24.7049 4.48019 23.3329 3.56252 21.821 2.93802C20.309 2.31351 18.6873 1.99467 17.0502 2.00007C10.191 2.00007 4.6005 7.56255 4.6005 14.3875C4.6005 16.575 5.17839 18.7 6.25879 20.575L4.5 27L11.0955 25.275C12.9171 26.2625 14.9648 26.7875 17.0502 26.7875C23.9095 26.7875 29.5 21.225 29.5 14.4C29.5 11.0875 28.206 7.97505 25.8568 5.63756ZM17.0502 24.6875C15.191 24.6875 13.3693 24.1875 11.7739 23.25L11.397 23.025L7.47739 24.05L8.5201 20.25L8.26884 19.8625C7.23561 18.2213 6.68709 16.3241 6.68593 14.3875C6.68593 8.71255 11.3342 4.08756 17.0377 4.08756C19.8015 4.08756 22.402 5.16256 24.3492 7.11255C25.3136 8.06738 26.0778 9.20323 26.5975 10.4542C27.1172 11.7052 27.3822 13.0464 27.3769 14.4C27.402 20.075 22.7538 24.6875 17.0502 24.6875ZM22.7286 16.9875C22.4146 16.8375 20.8819 16.0875 20.6055 15.975C20.3166 15.875 20.1156 15.825 19.902 16.125C19.6884 16.4375 19.098 17.1375 18.9221 17.3375C18.7462 17.55 18.5578 17.575 18.2437 17.4125C17.9296 17.2625 16.9246 16.925 15.7437 15.875C14.8141 15.05 14.1985 14.0375 14.01 13.725C13.8342 13.4125 13.9849 13.25 14.1482 13.0875C14.2864 12.95 14.4623 12.725 14.6131 12.55C14.7638 12.375 14.8266 12.2375 14.9271 12.0375C15.0276 11.825 14.9774 11.65 14.902 11.5C14.8266 11.35 14.1985 9.82505 13.9472 9.20005C13.696 8.60005 13.4322 8.67505 13.2437 8.66255H12.6407C12.4271 8.66255 12.1005 8.73755 11.8116 9.05005C11.5352 9.36255 10.7312 10.1125 10.7312 11.6375C10.7312 13.1625 11.8492 14.6375 12 14.8375C12.1508 15.05 14.1985 18.175 17.3141 19.5125C18.0553 19.8375 18.6332 20.025 19.0854 20.1625C19.8266 20.4 20.505 20.3625 21.0452 20.2875C21.6482 20.2 22.892 19.5375 23.1432 18.8125C23.407 18.0875 23.407 17.475 23.3191 17.3375C23.2312 17.2 23.0427 17.1375 22.7286 16.9875Z" fill="white"/>
</svg>
